<svg width="28" height="28" viewBox="0 0 28 28" fill="none" xmlns="http://www.w3.org/2000/svg">
<g id="u:plus">
<path id="Vector" d="M17.3334 9.55498L13.9999 12.8885L10.6664 9.55498C10.519 9.40763 10.3192 9.32485 10.1108 9.32485C9.90239 9.32485 9.70254 9.40763 9.55519 9.55498C9.40784 9.70233 9.32506 9.90218 9.32506 10.1106C9.32506 10.3189 9.40784 10.5188 9.55519 10.6661L12.8887 13.9996L9.55519 17.3332C9.40784 17.4805 9.32506 17.6804 9.32506 17.8887C9.32506 18.0971 9.40784 18.297 9.55519 18.4443C9.70254 18.5917 9.90239 18.6745 10.1108 18.6745C10.3192 18.6745 10.519 18.5917 10.6664 18.4443L13.9999 15.1108L17.3334 18.4443C17.4807 18.5917 17.6806 18.6745 17.8889 18.6745C18.0973 18.6745 18.2972 18.5917 18.4445 18.4443C18.5919 18.297 18.6747 18.0971 18.6747 17.8887C18.6747 17.6804 18.5919 17.4805 18.4445 17.3332L15.111 13.9996L18.4445 10.6661C18.5919 10.5188 18.6747 10.3189 18.6747 10.1106C18.6747 9.90218 18.5919 9.70233 18.4445 9.55498C18.2972 9.40763 18.0973 9.32485 17.8889 9.32485C17.6806 9.32485 17.4807 9.40763 17.3334 9.55498Z" fill="#F5F6F7"/>
</g>
</svg>
