<svg width="32" height="32" viewBox="0 0 32 32" fill="none" xmlns="http://www.w3.org/2000/svg">
<g id="rocket-outline 1">
<path id="Vector" d="M28.8631 3.36297C28.8525 3.31167 28.8274 3.26449 28.7909 3.22695C28.7543 3.18942 28.7078 3.1631 28.6569 3.15109C25.2581 2.31984 17.4069 5.28172 13.1487 9.53672C12.3898 10.2894 11.6979 11.1066 11.0806 11.9792C9.76811 11.8605 8.45561 11.9605 7.33811 12.448C4.18248 13.8355 3.26436 17.4592 3.00811 19.0148C2.99423 19.1001 3.00016 19.1874 3.02544 19.27C3.05072 19.3525 3.09468 19.4282 3.15391 19.491C3.21314 19.5539 3.28605 19.6023 3.36698 19.6324C3.44791 19.6625 3.5347 19.6736 3.62061 19.6648L8.68748 19.1086C8.69099 19.4908 8.71394 19.8725 8.75624 20.2523C8.78268 20.5149 8.89982 20.76 9.08748 20.9455L11.0494 22.9073C11.235 23.0951 11.4804 23.2123 11.7431 23.2386C12.1207 23.2807 12.5001 23.3036 12.88 23.3073L12.3244 28.3698C12.3157 28.4556 12.3269 28.5423 12.357 28.6231C12.3872 28.7039 12.4355 28.7767 12.4983 28.8358C12.561 28.895 12.6365 28.9389 12.719 28.9642C12.8014 28.9895 12.8886 28.9955 12.9737 28.9817C14.53 28.7317 18.1612 27.8136 19.5406 24.6586C20.0281 23.5398 20.1281 22.2342 20.0156 20.928C20.8908 20.3113 21.7104 19.6193 22.465 18.8598C26.7387 14.6098 29.6819 6.93109 28.8631 3.36297ZM18.6662 13.3542C18.2929 12.981 18.0387 12.5055 17.9357 11.9878C17.8327 11.4701 17.8855 10.9335 18.0874 10.4458C18.2894 9.95808 18.6315 9.54124 19.0704 9.24797C19.5093 8.95469 20.0253 8.79816 20.5531 8.79816C21.081 8.79816 21.597 8.95469 22.0359 9.24797C22.4747 9.54124 22.8168 9.95808 23.0188 10.4458C23.2207 10.9335 23.2736 11.4701 23.1705 11.9878C23.0675 12.5055 22.8133 12.981 22.44 13.3542C22.1924 13.6023 21.8983 13.7992 21.5745 13.9335C21.2507 14.0678 20.9036 14.137 20.5531 14.137C20.2026 14.137 19.8555 14.0678 19.5317 13.9335C19.2079 13.7992 18.9138 13.6023 18.6662 13.3542Z" stroke="white" stroke-width="2" stroke-linecap="round" stroke-linejoin="round"/>
<path id="Vector_2" d="M6.8525 22C6.22945 22.0765 5.6498 22.3589 5.20563 22.8025C4.10438 23.9075 4 28 4 28C4 28 8.095 27.8956 9.19687 26.7931C9.64224 26.3496 9.92517 25.769 10 25.145" stroke="white" stroke-width="2" stroke-linecap="round" stroke-linejoin="round"/>
</g>
</svg>
